<svg id="Calque_1" data-name="Calque 1" xmlns="http://www.w3.org/2000/svg" viewBox="0 0 340.16 340.16"><title>Plan de travail 1</title><path d="M82.31,67.52a52.57,52.57,0,0,0,18,40.17c12.57,11.27,28.28,18.17,44.45,22.53,36.37,9.8,77.73,7,109.16-15.19,13.87-9.81,25.72-23,32.61-38.59,3.31-7.5,5.14-16.58,1.22-24.24-4.42-8.65-13.89-10.35-22.74-9.76C228.32,44.92,197,66.56,173.68,93.75c-25.76,30-44,65.81-65.64,98.7Q91,218.36,72.58,243.38c-5.47,7.45-10.81,15.16-16.88,22.14-4.14,4.74-9.79,10.2-16.26,9.08-11.88-2.05-17.16-17.85-12.51-27.78,6.14-13.15,22-19.67,35.8-20.06,30.57-.87,56.87,18.24,81.06,34.56,26.64,18,54.45,35.51,87.59,36.46,32,.91,65.27-12.26,86.41-36.55a92,92,0,0,0,13-19.41c4.48-8.95-7.55-15.76-13.28-7.76-16.67,23.29-43.55,40.11-72.05,43.87-30.74,4.05-57.83-9.57-83.14-25.38-25-15.6-50.18-34.55-79.89-39.62-15.28-2.6-31-1.72-45.35,4.55-13.76,6-26.21,18.17-28.4,33.58-2.08,14.63,5.43,30.39,18.18,38,15.75,9.34,32.23,1.32,42.88-11.59,12.5-15.18,23.76-31.64,34.85-47.86q17-24.81,32.53-50.57c19.12-31.53,36.21-65.92,64-90.94C213.42,77,227.86,67.75,243.69,62.73a76.64,76.64,0,0,1,24.44-3.9c1.36,0,3.68-.18,4.52,1.14,1.3,2-1.07,7-1.9,8.88-13.63,30.36-47.61,47.49-79.57,49.31-31.7,1.81-69.76-6.45-91.31-31.59-4.83-5.63-8.27-11.58-9-19-.54-5.35-8.52-5.6-8.53,0Z"/></svg>